{
  "source": "C:\\Users\\Peter\\Desktop\\stuff\\MIUN\\quantitative_research\\video_compression\\videos\\BVI-HD\\BVI-HD_CDVL_videos\\ORIG\\Diver_1920x1080_30fps.mp4",
  "output": "C:\\Users\\Peter\\Desktop\\stuff\\MIUN\\quantitative_research\\video_compression\\compressed_videos\\BVI-HD\\av1\\8\\Diver_1920x1080_30fps_av1.mkv",
  "codec": "av1",
  "ok": "Input #0, mov,mp4,m4a,3gp,3g2,mj2, from 'C:\\Users\\Peter\\Desktop\\stuff\\MIUN\\quantitative_research\\video_compression\\videos\\BVI-HD\\BVI-HD_CDVL_videos\\ORIG\\Diver_1920x1080_30fps.mp4':\n  Metadata:\n    major_brand     : isom\n    minor_version   : 512\n    compatible_brands: isomiso2avc1mp41\n    encoder         : Lavf54.28.101\n  Duration: 00:00:05.00, start: 0.000000, bitrate: 196798 kb/s\n  Stream #0:0[0x1](und): Video: h264 (High 4:4:4 Predictive) (avc1 / 0x31637661), yuv420p(progressive), 1920x1080, 196794 kb/s, 30 fps, 30 tbr, 30 tbn (default)\n    Metadata:\n      handler_name    : VideoHandler\n      vendor_id       : [0][0][0][0]\n[out#0/matroska @ 00000243bc090c00] Codec AVOption b:a (set bitrate (in bits/s)) has not been used for any stream. The most likely reason is either wrong type (e.g. a video option with no video streams) or that it is a private option of some decoder which was not actually used for any stream.\nStream mapping:\n  Stream #0:0 -> #0:0 (h264 (native) -> av1 (libsvtav1))\nPress [q] to stop, [?] for help\nSvt[info]: -------------------------------------------\nSvt[info]: SVT [version]:\tSVT-AV1 Encoder Lib v3.1.0-19-g6ecfe8ec\nSvt[info]: SVT [build]  :\tGCC 15.2.0\t 64 bit\nSvt[info]: LIB Build date: Aug 17 2025 11:37:13\nSvt[info]: -------------------------------------------\nSvt[info]: Level of Parallelism: 5\nSvt[info]: Number of PPCS 93\nSvt[info]: [asm level on system : up to avx2]\nSvt[info]: [asm level selected : up to avx2]\nSvt[info]: -------------------------------------------\nSvt[info]: SVT [config]: main profile\ttier (auto)\tlevel (auto)\nSvt[info]: SVT [config]: width / height / fps numerator / fps denominator \t\t: 1920 / 1080 / 30 / 1\nSvt[info]: SVT [config]: bit-depth / color format \t\t\t\t\t: 8 / YUV420\nSvt[info]: SVT [config]: preset / tune / pred struct \t\t\t\t\t: 4 / PSNR / random access\nSvt[info]: SVT [config]: gop size / mini-gop size / key-frame type \t\t\t: 161 / 16 / key frame\nSvt[info]: SVT [config]: BRC mode / target bitrate (kbps)\t\t\t\t: VBR / 8000 \nSvt[info]: SVT [config]: AQ mode / Variance Boost \t\t\t\t\t: 2 / 0\nSvt[info]: SVT [config]: sharpness / luminance-based QP bias \t\t\t\t: 0 / 0\nSvt[info]: SVT [config]: QP scale compress strength \t\t\t\t\t: 0\nSvt[info]: -------------------------------------------\nOutput #0, matroska, to 'C:\\Users\\Peter\\Desktop\\stuff\\MIUN\\quantitative_research\\video_compression\\compressed_videos\\BVI-HD\\av1\\8\\Diver_1920x1080_30fps_av1.mkv':\n  Metadata:\n    major_brand     : isom\n    minor_version   : 512\n    compatible_brands: isomiso2avc1mp41\n    encoder         : Lavf62.3.100\n  Stream #0:0(und): Video: av1 (AV01 / 0x31305641), yuv420p(tv, progressive), 1920x1080, q=2-31, 8000 kb/s, 30 fps, 1k tbn (default)\n    Metadata:\n      encoder         : Lavc62.11.100 libsvtav1\n      handler_name    : VideoHandler\n      vendor_id       : [0][0][0][0]\n    Side data:\n      cpb: bitrate max/min/avg: 0/0/8000000 buffer size: 8000000 vbv_delay: N/A\nframe=    0 fps=0.0 q=0.0 size=       0KiB time=N/A bitrate=N/A speed=N/A elapsed=0:00:01.11    \nframe=    0 fps=0.0 q=0.0 size=       0KiB time=N/A bitrate=N/A speed=N/A elapsed=0:00:01.68    \nframe=    0 fps=0.0 q=0.0 size=       0KiB time=N/A bitrate=N/A speed=N/A elapsed=0:00:02.28    \nframe=    0 fps=0.0 q=0.0 size=       0KiB time=N/A bitrate=N/A speed=N/A elapsed=0:00:02.84    \nframe=    0 fps=0.0 q=0.0 size=       0KiB time=N/A bitrate=N/A speed=N/A elapsed=0:00:03.38    \nframe=    1 fps=0.3 q=3.0 size=       1KiB time=00:00:00.00 bitrate=N/A speed=   0x elapsed=0:00:03.93    \nframe=    1 fps=0.2 q=3.0 size=       1KiB time=00:00:00.00 bitrate=N/A speed=   0x elapsed=0:00:04.49    \nframe=    1 fps=0.2 q=3.0 size=       1KiB time=00:00:00.00 bitrate=N/A speed=   0x elapsed=0:00:05.01    \nframe=    2 fps=0.4 q=15.0 size=       1KiB time=00:00:00.03 bitrate= 171.1kbits/s speed=0.006x elapsed=0:00:05.55    \nframe=    3 fps=0.5 q=12.0 size=       1KiB time=00:00:00.06 bitrate=  85.6kbits/s speed=0.011x elapsed=0:00:06.07    \nframe=    5 fps=0.8 q=12.0 size=       1KiB time=00:00:00.13 bitrate=  42.8kbits/s speed=0.0201x elapsed=0:00:06.62    \nframe=    6 fps=0.8 q=15.0 size=       1KiB time=00:00:00.16 bitrate=  34.2kbits/s speed=0.0232x elapsed=0:00:07.17    \nframe=    8 fps=1.0 q=14.0 size=       1KiB time=00:00:00.23 bitrate=  24.4kbits/s speed=0.0303x elapsed=0:00:07.70    \nframe=   10 fps=1.2 q=11.0 size=       1KiB time=00:00:00.30 bitrate=  19.0kbits/s speed=0.0364x elapsed=0:00:08.23    \nframe=   11 fps=1.3 q=11.0 size=       1KiB time=00:00:00.33 bitrate=  17.1kbits/s speed=0.0381x elapsed=0:00:08.75    \nframe=   14 fps=1.5 q=11.0 size=       1KiB time=00:00:00.40 bitrate=  14.3kbits/s speed=0.0431x elapsed=0:00:09.27    \nframe=   15 fps=1.5 q=11.0 size=       1KiB time=00:00:00.46 bitrate=  12.2kbits/s speed=0.0477x elapsed=0:00:09.79    \nframe=   17 fps=1.6 q=5.0 size=       1KiB time=00:00:00.53 bitrate=  10.7kbits/s speed=0.0517x elapsed=0:00:10.31    \nframe=   18 fps=1.7 q=10.0 size=       1KiB time=00:00:00.56 bitrate=  10.1kbits/s speed=0.052x elapsed=0:00:10.90    \nframe=   19 fps=1.7 q=12.0 size=       1KiB time=00:00:00.60 bitrate=   9.5kbits/s speed=0.0524x elapsed=0:00:11.44    \nframe=   21 fps=1.7 q=10.0 size=       1KiB time=00:00:00.66 bitrate=   8.6kbits/s speed=0.0555x elapsed=0:00:12.01    \nframe=   22 fps=1.7 q=11.0 size=       1KiB time=00:00:00.70 bitrate=   8.1kbits/s speed=0.0557x elapsed=0:00:12.57    \nframe=   22 fps=1.7 q=11.0 size=       1KiB time=00:00:00.70 bitrate=   8.1kbits/s speed=0.0532x elapsed=0:00:13.15    \nframe=   24 fps=1.7 q=11.0 size=       1KiB time=00:00:00.76 bitrate=   7.4kbits/s speed=0.0559x elapsed=0:00:13.71    \nframe=   27 fps=1.9 q=12.0 size=       1KiB time=00:00:00.86 bitrate=   6.6kbits/s speed=0.0609x elapsed=0:00:14.24    \nframe=   28 fps=1.9 q=10.0 size=       1KiB time=00:00:00.90 bitrate=   6.3kbits/s speed=0.0609x elapsed=0:00:14.77    \nframe=   30 fps=2.0 q=11.0 size=       1KiB time=00:00:00.96 bitrate=   5.9kbits/s speed=0.063x elapsed=0:00:15.35    \nframe=   32 fps=2.0 q=11.0 size=       1KiB time=00:00:01.03 bitrate=   5.5kbits/s speed=0.0648x elapsed=0:00:15.95    \nframe=   34 fps=2.1 q=10.0 size=       1KiB time=00:00:01.10 bitrate=   5.2kbits/s speed=0.0667x elapsed=0:00:16.48    \nframe=   35 fps=2.1 q=12.0 size=       1KiB time=00:00:01.13 bitrate=   5.0kbits/s speed=0.0666x elapsed=0:00:17.01    \nframe=   37 fps=2.1 q=10.0 size=       1KiB time=00:00:01.20 bitrate=   4.8kbits/s speed=0.0684x elapsed=0:00:17.54    \nframe=   39 fps=2.2 q=12.0 size=       1KiB time=00:00:01.26 bitrate=   4.5kbits/s speed=0.0701x elapsed=0:00:18.08    \nframe=   41 fps=2.2 q=6.0 size=       1KiB time=00:00:01.33 bitrate=   4.3kbits/s speed=0.0716x elapsed=0:00:18.62    \nframe=   43 fps=2.2 q=12.0 size=       1KiB time=00:00:01.40 bitrate=   4.1kbits/s speed=0.0731x elapsed=0:00:19.14    \nframe=   45 fps=2.3 q=10.0 size=       1KiB time=00:00:01.46 bitrate=   3.9kbits/s speed=0.0746x elapsed=0:00:19.65    \nframe=   47 fps=2.3 q=12.0 size=       1KiB time=00:00:01.53 bitrate=   3.7kbits/s speed=0.076x elapsed=0:00:20.17    \nframe=   50 fps=2.4 q=12.0 size=       1KiB time=00:00:01.63 bitrate=   3.5kbits/s speed=0.0789x elapsed=0:00:20.69    \nframe=   55 fps=2.6 q=13.0 size=       1KiB time=00:00:01.80 bitrate=   3.2kbits/s speed=0.0848x elapsed=0:00:21.21    \nframe=   57 fps=2.6 q=4.0 size=       1KiB time=00:00:01.86 bitrate=   3.1kbits/s speed=0.0859x elapsed=0:00:21.73    \nframe=   57 fps=2.6 q=4.0 size=       1KiB time=00:00:01.86 bitrate=   3.1kbits/s speed=0.0837x elapsed=0:00:22.28    \nframe=   61 fps=2.7 q=11.0 size=       1KiB time=00:00:02.00 bitrate=   2.9kbits/s speed=0.0877x elapsed=0:00:22.79    \nframe=   65 fps=2.8 q=1.0 size=       1KiB time=00:00:02.13 bitrate=   2.7kbits/s speed=0.0915x elapsed=0:00:23.31    \nframe=   67 fps=2.8 q=14.0 size=       1KiB time=00:00:02.20 bitrate=   2.6kbits/s speed=0.0923x elapsed=0:00:23.83    \nframe=   69 fps=2.8 q=12.0 size=       1KiB time=00:00:02.26 bitrate=   2.5kbits/s speed=0.0931x elapsed=0:00:24.35    \nframe=   73 fps=2.9 q=5.0 size=       1KiB time=00:00:02.40 bitrate=   2.4kbits/s speed=0.0965x elapsed=0:00:24.88    \nframe=   73 fps=2.9 q=5.0 size=       1KiB time=00:00:02.40 bitrate=   2.4kbits/s speed=0.0945x elapsed=0:00:25.39    \nframe=   77 fps=3.0 q=12.0 size=       1KiB time=00:00:02.53 bitrate=   2.3kbits/s speed=0.0977x elapsed=0:00:25.92    \nframe=   81 fps=3.1 q=1.0 size=       1KiB time=00:00:02.66 bitrate=   2.1kbits/s speed=0.101x elapsed=0:00:26.44    \nframe=   85 fps=3.2 q=13.0 size=       1KiB time=00:00:02.80 bitrate=   2.0kbits/s speed=0.104x elapsed=0:00:26.95    \nframe=   89 fps=3.2 q=6.0 size=       1KiB time=00:00:02.93 bitrate=   1.9kbits/s speed=0.107x elapsed=0:00:27.47    \nframe=   91 fps=3.3 q=15.0 size=       1KiB time=00:00:03.00 bitrate=   1.9kbits/s speed=0.107x elapsed=0:00:27.98    \nframe=   95 fps=3.3 q=14.0 size=       1KiB time=00:00:03.13 bitrate=   1.8kbits/s speed=0.11x elapsed=0:00:28.51    \nframe=  101 fps=3.5 q=12.0 size=       1KiB time=00:00:03.33 bitrate=   1.7kbits/s speed=0.115x elapsed=0:00:29.02    \nframe=  105 fps=3.6 q=8.0 size=       1KiB time=00:00:03.46 bitrate=   1.6kbits/s speed=0.117x elapsed=0:00:29.55    \nframe=  107 fps=3.6 q=13.0 size=       1KiB time=00:00:03.53 bitrate=   1.6kbits/s speed=0.117x elapsed=0:00:30.10    \nframe=  113 fps=3.7 q=4.0 size=       1KiB time=00:00:03.73 bitrate=   1.5kbits/s speed=0.122x elapsed=0:00:30.63    \nframe=  117 fps=3.8 q=10.0 size=       1KiB time=00:00:03.86 bitrate=   1.5kbits/s speed=0.124x elapsed=0:00:31.15    \nframe=  121 fps=3.8 q=8.0 size=       1KiB time=00:00:04.00 bitrate=   1.4kbits/s speed=0.126x elapsed=0:00:31.67    \nframe=  123 fps=3.8 q=12.0 size=       1KiB time=00:00:04.06 bitrate=   1.4kbits/s speed=0.126x elapsed=0:00:32.20    \nframe=  127 fps=3.9 q=16.0 size=       1KiB time=00:00:04.20 bitrate=   1.4kbits/s speed=0.128x elapsed=0:00:32.72    \nframe=  133 fps=4.0 q=16.0 size=       1KiB time=00:00:04.40 bitrate=   1.3kbits/s speed=0.132x elapsed=0:00:33.24    \nframe=  137 fps=4.1 q=10.0 size=       1KiB time=00:00:04.53 bitrate=   1.3kbits/s speed=0.134x elapsed=0:00:33.75    \nframe=  141 fps=4.1 q=16.0 size=       1KiB time=00:00:04.66 bitrate=   1.2kbits/s speed=0.136x elapsed=0:00:34.26    \n[out#0/matroska @ 00000243bc090c00] video:4506KiB audio:0KiB subtitle:0KiB other streams:0KiB global headers:0KiB muxing overhead: 0.032614%\nframe=  150 fps=4.4 q=19.0 Lsize=    4508KiB time=00:00:04.96 bitrate=7435.3kbits/s speed=0.144x elapsed=0:00:34.41    \n",
  "seconds": 34.911428451538086,
  "probe_out": {}
}